<mxfile host="app.diagrams.net" modified="2022-10-11T20:02:44.294Z" agent="5.0 (Macintosh)" etag="jYhjKR7TvJvVq5YRxJ44" version="20.4.0" type="github">
  <diagram id="prtHgNgQTEPvFCAcTncT" name="Page-1">
    <mxGraphModel dx="1465" dy="1215" grid="1" gridSize="10" guides="1" tooltips="1" connect="1" arrows="1" fold="1" page="1" pageScale="1" pageWidth="827" pageHeight="1169" math="0" shadow="0">
      <root>
        <mxCell id="0" />
        <mxCell id="1" parent="0" />
        <mxCell id="dNxyNK7c78bLwvsdeMH5-19" value="&lt;div&gt;Migrate to Flex Shapes&lt;/div&gt;" style="swimlane;html=1;childLayout=stackLayout;resizeParent=1;resizeParentMax=0;horizontal=0;startSize=20;horizontalStack=0;" parent="1" vertex="1">
          <mxGeometry x="120" y="120" width="870" height="300" as="geometry" />
        </mxCell>
        <mxCell id="dNxyNK7c78bLwvsdeMH5-20" value="Evaluate" style="swimlane;html=1;startSize=20;horizontal=0;" parent="dNxyNK7c78bLwvsdeMH5-19" vertex="1">
          <mxGeometry x="20" width="850" height="120" as="geometry" />
        </mxCell>
        <mxCell id="dNxyNK7c78bLwvsdeMH5-25" value="" style="edgeStyle=orthogonalEdgeStyle;rounded=0;orthogonalLoop=1;jettySize=auto;html=1;" parent="dNxyNK7c78bLwvsdeMH5-20" source="dNxyNK7c78bLwvsdeMH5-23" target="dNxyNK7c78bLwvsdeMH5-24" edge="1">
          <mxGeometry relative="1" as="geometry" />
        </mxCell>
        <mxCell id="dNxyNK7c78bLwvsdeMH5-23" value="Instance Inventory " style="ellipse;whiteSpace=wrap;html=1;" parent="dNxyNK7c78bLwvsdeMH5-20" vertex="1">
          <mxGeometry x="30" y="35" width="70" height="50" as="geometry" />
        </mxCell>
        <mxCell id="dNxyNK7c78bLwvsdeMH5-24" value="Identify Non-Flex Instances " style="rounded=0;whiteSpace=wrap;html=1;fontFamily=Helvetica;fontSize=12;fontColor=#000000;align=center;" parent="dNxyNK7c78bLwvsdeMH5-20" vertex="1">
          <mxGeometry x="120" y="30" width="110" height="60" as="geometry" />
        </mxCell>
        <mxCell id="-BbiLV9v_ne7FSzySpl9-26" value="&lt;b&gt;No&lt;/b&gt;" style="text;html=1;strokeColor=none;fillColor=none;align=center;verticalAlign=middle;whiteSpace=wrap;rounded=0;" vertex="1" parent="dNxyNK7c78bLwvsdeMH5-20">
          <mxGeometry x="440" y="30" width="60" height="30" as="geometry" />
        </mxCell>
        <mxCell id="-BbiLV9v_ne7FSzySpl9-27" value="&lt;b&gt;Yes&lt;/b&gt;" style="text;html=1;strokeColor=none;fillColor=none;align=center;verticalAlign=middle;whiteSpace=wrap;rounded=0;" vertex="1" parent="dNxyNK7c78bLwvsdeMH5-20">
          <mxGeometry x="330" y="90" width="60" height="20" as="geometry" />
        </mxCell>
        <mxCell id="dNxyNK7c78bLwvsdeMH5-21" value="&lt;div&gt;Execute&lt;/div&gt;" style="swimlane;html=1;startSize=20;horizontal=0;" parent="dNxyNK7c78bLwvsdeMH5-19" vertex="1">
          <mxGeometry x="20" y="120" width="850" height="180" as="geometry" />
        </mxCell>
        <mxCell id="-BbiLV9v_ne7FSzySpl9-7" value="Is the Platform Image&lt;br&gt; compatible" style="rhombus;whiteSpace=wrap;html=1;fontColor=#000000;rounded=0;" vertex="1" parent="dNxyNK7c78bLwvsdeMH5-21">
          <mxGeometry x="40" y="40" width="160" height="80" as="geometry" />
        </mxCell>
        <mxCell id="-BbiLV9v_ne7FSzySpl9-14" value="Add Shape Compatiblity" style="whiteSpace=wrap;html=1;fontColor=#000000;rounded=0;" vertex="1" parent="dNxyNK7c78bLwvsdeMH5-21">
          <mxGeometry x="480" y="50" width="120" height="60" as="geometry" />
        </mxCell>
        <mxCell id="-BbiLV9v_ne7FSzySpl9-16" value="Relaunch Instances using the desired shape" style="whiteSpace=wrap;html=1;fontColor=#000000;rounded=0;" vertex="1" parent="dNxyNK7c78bLwvsdeMH5-21">
          <mxGeometry x="670" y="30" width="120" height="100" as="geometry" />
        </mxCell>
        <mxCell id="-BbiLV9v_ne7FSzySpl9-17" value="" style="edgeStyle=orthogonalEdgeStyle;rounded=0;orthogonalLoop=1;jettySize=auto;html=1;" edge="1" parent="dNxyNK7c78bLwvsdeMH5-21" source="-BbiLV9v_ne7FSzySpl9-14" target="-BbiLV9v_ne7FSzySpl9-16">
          <mxGeometry relative="1" as="geometry" />
        </mxCell>
        <mxCell id="-BbiLV9v_ne7FSzySpl9-18" style="edgeStyle=orthogonalEdgeStyle;rounded=0;orthogonalLoop=1;jettySize=auto;html=1;" edge="1" parent="dNxyNK7c78bLwvsdeMH5-21" source="-BbiLV9v_ne7FSzySpl9-7" target="-BbiLV9v_ne7FSzySpl9-16">
          <mxGeometry relative="1" as="geometry">
            <mxPoint x="650" y="110" as="targetPoint" />
            <Array as="points">
              <mxPoint x="120" y="150" />
              <mxPoint x="620" y="150" />
              <mxPoint x="620" y="110" />
            </Array>
          </mxGeometry>
        </mxCell>
        <mxCell id="-BbiLV9v_ne7FSzySpl9-8" value="" style="edgeStyle=orthogonalEdgeStyle;rounded=0;orthogonalLoop=1;jettySize=auto;html=1;entryX=0.5;entryY=0;entryDx=0;entryDy=0;exitX=0.5;exitY=1;exitDx=0;exitDy=0;" edge="1" parent="1" source="-BbiLV9v_ne7FSzySpl9-3" target="-BbiLV9v_ne7FSzySpl9-7">
          <mxGeometry relative="1" as="geometry">
            <mxPoint x="290" y="330" as="targetPoint" />
            <Array as="points">
              <mxPoint x="530" y="220" />
              <mxPoint x="530" y="260" />
              <mxPoint x="260" y="260" />
            </Array>
          </mxGeometry>
        </mxCell>
        <mxCell id="-BbiLV9v_ne7FSzySpl9-24" style="edgeStyle=orthogonalEdgeStyle;rounded=0;orthogonalLoop=1;jettySize=auto;html=1;entryX=0;entryY=0.25;entryDx=0;entryDy=0;strokeColor=#000000;fillColor=#141414;" edge="1" parent="1" source="-BbiLV9v_ne7FSzySpl9-3" target="-BbiLV9v_ne7FSzySpl9-14">
          <mxGeometry relative="1" as="geometry">
            <Array as="points">
              <mxPoint x="610" y="180" />
              <mxPoint x="610" y="305" />
            </Array>
          </mxGeometry>
        </mxCell>
        <mxCell id="-BbiLV9v_ne7FSzySpl9-3" value="Is Platform Image " style="rhombus;whiteSpace=wrap;html=1;fontColor=#000000;rounded=0;" vertex="1" parent="1">
          <mxGeometry x="465" y="140" width="135" height="80" as="geometry" />
        </mxCell>
        <mxCell id="-BbiLV9v_ne7FSzySpl9-4" value="" style="edgeStyle=orthogonalEdgeStyle;rounded=0;orthogonalLoop=1;jettySize=auto;html=1;" edge="1" parent="1" source="dNxyNK7c78bLwvsdeMH5-24" target="-BbiLV9v_ne7FSzySpl9-3">
          <mxGeometry relative="1" as="geometry" />
        </mxCell>
        <mxCell id="-BbiLV9v_ne7FSzySpl9-15" value="" style="edgeStyle=orthogonalEdgeStyle;rounded=0;orthogonalLoop=1;jettySize=auto;html=1;" edge="1" parent="1" source="-BbiLV9v_ne7FSzySpl9-12" target="-BbiLV9v_ne7FSzySpl9-14">
          <mxGeometry relative="1" as="geometry" />
        </mxCell>
        <mxCell id="-BbiLV9v_ne7FSzySpl9-12" value="Capture a custom image from the current instance " style="whiteSpace=wrap;html=1;fontColor=#000000;rounded=0;" vertex="1" parent="1">
          <mxGeometry x="440" y="290" width="120" height="60" as="geometry" />
        </mxCell>
        <mxCell id="-BbiLV9v_ne7FSzySpl9-13" value="" style="edgeStyle=orthogonalEdgeStyle;rounded=0;orthogonalLoop=1;jettySize=auto;html=1;" edge="1" parent="1" source="-BbiLV9v_ne7FSzySpl9-7" target="-BbiLV9v_ne7FSzySpl9-12">
          <mxGeometry relative="1" as="geometry" />
        </mxCell>
      </root>
    </mxGraphModel>
  </diagram>
</mxfile>
